# xmcd
#
# Track frame offsets:
#	150
#	11390
#	22189
#	36775
#	55601
#	84927
#	107772
#	135362
#	149433
#	171839
#	197375
#	216483
#	230539
#
# Disc length: 3273 seconds
#
# Revision: 0
# Processed by: cddbd v1.5.2PL0 Copyright (c) Steve Scherf et al.
# Submitted via: EasyCDDAExtractor 16.0.6.1
#
DISCID=a80cc70d
DTITLE=Άγνωστος - Τα χίτικα
DYEAR=1900
DGENRE=Πατριωτική
TTITLE0=Άγνωστος - Ο ίλαρχος Βρεττάκος
TTITLE1=Άνευ ερμηνευτού - Του αητού ο γιος [ορχηστρικό]
TTITLE2=Άγνωστος - Νύχτα τα ζεύει τ' άλογα (Ο Ζέρβας)
TTITLE3=Άγνωστος - Απ' όλα τα αποσπάσματα (Ο Μαγγανάς)
TTITLE4=Άγνωστος - Κορίτσι από την Καστοριά
TTITLE5=Άγνωστος - Γρίβα σε θέλει ο βασιλιάς
TTITLE6=Άγνωστος - Τζαβέλαινα
TTITLE7=Άγνωστος - Γεια σου Σάρα αθάνατε
TTITLE8=Άγνωστος - Δεν παραδίδω τ' άρματα
TTITLE9=Άγνωστος - Πέρασα απ' τον Μελιγαλά
TTITLE10=Άγνωστος - Περάστε απ' το Αιτωλικό
TTITLE11=Άγνωστος - Γεια σου φίλε Κατσαρέα
TTITLE12=Άγνωστος - Έχε γεια καϋμένε κόσμε
EXTD=
EXTT0=
EXTT1=
EXTT2=
EXTT3=
EXTT4=
EXTT5=
EXTT6=
EXTT7=
EXTT8=
EXTT9=
EXTT10=
EXTT11=
EXTT12=
PLAYORDER=
